<?xml version="1.0" encoding="utf-8"?>
<svg viewBox="0 0 22 22" xmlns="http://www.w3.org/2000/svg">
  <g transform="matrix(-1, 0, 0, -1, 21.978003, 22.073999)">
    <ellipse style="stroke: rgb(0, 0, 0); stroke-width: 0px;" cx="10.989" cy="11.037" rx="10.869" ry="10.869"/>
    <path d="M 15.265 11.402 L 8.386 18.281 C 7.948 18.719 7.238 18.719 6.801 18.281 C 6.364 17.844 6.364 17.134 6.801 16.697 L 12.888 10.609 L 6.801 4.522 C 6.364 4.085 6.364 3.375 6.801 2.938 C 7.238 2.5 7.948 2.5 8.386 2.938 L 15.265 9.817 C 15.484 10.036 15.593 10.323 15.593 10.609 C 15.593 10.896 15.484 11.183 15.265 11.401" style="fill: rgb(255, 255, 255);" transform="matrix(-0.003671, -0.999993, 0.999993, -0.003671, 0.4642, 21.681498)"/>
  </g>
</svg>